<?xml version="1.0" encoding="utf-8"?>
<!-- Generator: Adobe Illustrator 27.6.1, SVG Export Plug-In . SVG Version: 6.00 Build 0)  -->
<svg version="1.1" id="Layer_1" xmlns="http://www.w3.org/2000/svg" xmlns:xlink="http://www.w3.org/1999/xlink" x="0px" y="0px"
	 viewBox="0 0 600 400" style="enable-background:new 0 0 600 400;" xml:space="preserve">
<g>
	<path d="M195.3,166.7c0-0.1-0.5-0.2-0.5-0.2c0-1-0.3-2.4-1.2-2.9c-2.7-1.4-3-0.8-5.7-2.2c-2.7-1.4-2.5-1.8-5.2-3.3
		c-2.7-1.4-2.9-1-5.6-2.4c-2.7-1.4-2.4-1.9-5.1-3.3c-2.7-1.4-2.8-1.2-5.5-2.6c-2.7-1.4-2.6-1.5-5.3-2.9c-2.7-1.4-2.8-1.2-5.5-2.6
		c-2.7-1.4-2.4-2-5.1-3.4c-2.7-1.4-2.8-1.3-5.5-2.7c-2.7-1.4-2.8-1.2-5.5-2.6c-2.7-1.4-2.5-1.8-5.2-3.2c-2.7-1.4-2.7-1.4-5.4-2.8
		c-2.7-1.4-2.7-1.5-5.4-2.9c-2.7-1.4-3-0.9-5.7-2.3c-0.8-0.4-2.2-0.9-3-0.4c-0.8,0.5-0.5,1.9-0.5,2.8c0,3.2-1,3.2-1,6.3
		c0,3.2,1.1,3.2,1.1,6.3c0,3.2-0.1,3.2-0.1,6.3c0,3.2-1.1,3.2-1.1,6.3c0,3.2,0.6,3.2,0.6,6.3c0,3.2,0.4,3.2,0.4,6.3
		c0,3.2,0.2,3.2,0.2,6.3c0,3.2-1.1,3.2-1.1,6.3c0,3.2,1,3.2,1,6.3c0,3.2,0.1,3.2,0.1,6.3c0,3.2-0.8,3.2-0.8,6.3
		c0,3.2,0.8,3.2,0.8,6.3c0,3.2-0.3,3.2-0.3,6.3c0,3.2-0.3,3.2-0.3,6.3c0,3.2,0,3.2,0,6.3c0,3.2,0.2,3.2,0.2,6.3
		c0,3.2,0.4,3.2,0.4,6.3c0,3.2-0.9,3.2-0.9,6.3c0,3.2,0.8,3.2,0.8,6.3c0,3.2-1.1,3.2-1.1,6.3c0,3.2,1.1,3.2,1.1,6.3
		s-0.7,3.2-0.7,6.3s0,3.2,0,6.3c0,0.8,0.1,2.1,0.8,2.6c0.5,0.4,1.5,0.1,2,0.1c0.2,0,0.6,0.6,0.8,0.5c2.8-0.7,2.8-0.7,5.5-1.4
		c2.8-0.7,2.6-1.2,5.4-1.9c2.8-0.7,2.8-0.6,5.6-1.3c2.8-0.7,2.9-0.4,5.6-1.1c2.8-0.7,2.6-1.4,5.3-2.1c0,0-0.1-0.6-0.1-0.7
		c3.1-0.8,3.3,0.1,6.4-0.7c3.1-0.8,2.9-1.5,6-2.3c3.1-0.8,3.3,0,6.4-0.8c3.1-0.8,3.1-0.9,6.2-1.7c3.1-0.8,3-1.2,6.1-2
		c3.1-0.8,3.2-0.6,6.3-1.3c0.9-0.2,2.2-0.7,2.5-1.6c0.3-0.9-0.6-1.9-1.3-2.6c-2-2.2-2-2.3-4-4.5c-2-2.2-1.9-2.3-4-4.5
		c-2-2.2-2.3-1.9-4.4-4.1c-2-2.2-5.3-1.9-4.5-4.8c0.9-3.3,3.6-1.6,6.6-3.1c3-1.5,3-1.6,6-3.1c3-1.5,3-1.5,6-3
		c0.8-0.4,1.7-0.8,1.8-1.6c0.4-3.3,0.2-3.3,0.6-6.6c0.4-3.3-0.2-3.4,0.2-6.6c0.4-3.3,1.2-3.2,1.7-6.5c0.4-3.3,1-3.2,1.4-6.5
		c0.4-3.3,0-3.3,0.5-6.6c0.4-3.3,0.8-3.2,1.2-6.5c0.4-3.3-0.3-3.4,0.2-6.7c0.4-3.3,0.5-3.3,0.9-6.6c0.4-3.3,1-3.2,1.4-6.5
		C195.1,166.7,195.3,166.7,195.3,166.7 M178.9,218.4c-2.3-1.4-2.6-1-4.9-2.4c-2.3-1.4-2.1-1.8-4.4-3.2c-2.3-1.4-2.7-0.8-5-2.2
		c-1.3-0.8-1.3-2.6-0.4-3.8c1.9-2.6,1.5-2.9,3.5-5.5c1.9-2.6,2.4-2.3,4.3-4.9c0.9-1.2,0.3-3.1-0.8-4c-1.2-0.9-3-0.7-3.9,0.5
		c-2,2.8-1.9,2.9-3.9,5.7c-2,2.8-2.5,2.4-4.6,5.2c-0.8,1.1-1.5,1.4-2.7,0.7c-2.4-1.5-2.5-1.3-4.9-2.8c-2.4-1.5-2.2-1.8-4.6-3.3
		c-2.4-1.5-2.4-1.4-4.9-2.9c-1.8-1.1-1.7-2.6,0.3-3.4c3.1-1.3,2.8-1.9,5.9-3.2c3.1-1.3,3.3-0.9,6.4-2.2c3.1-1.3,2.7-2.3,5.7-3.7
		c3.1-1.3,3.5-0.5,6.5-1.8c3.1-1.3,2.6-2.4,5.7-3.7c3.1-1.3,3.1-1.2,6.2-2.6c3.1-1.3,3.5-0.4,6.6-1.7c1.9-0.8,3.6,0.1,3.3,2.1
		c-0.4,3,0,3-0.4,6c-0.4,3-0.3,3-0.7,6c-0.4,3-1.5,2.8-1.9,5.8c-0.4,3,0.5,3.1,0.1,6.1c-0.4,3-0.3,3-0.7,6c-0.4,3-1.2,2.9-1.6,5.9
		c-0.4,3,0.4,3.1,0,6.1C182.8,219,180.6,219.4,178.9,218.4 M119.7,265.8c0-3.1-0.5-3.1-0.5-6.2s0.4-3.1,0.4-6.2
		c0-3.1-0.7-3.1-0.7-6.2c0-3.1,0.5-3.1,0.5-6.2c0-3.1-0.5-3.1-0.5-6.2c0-3.1,0.6-3.1,0.6-6.2c0-3.1-0.3-3.1-0.3-6.2
		c0-3.1,0.1-3.1,0.1-6.2c0-3.1-0.2-3.1-0.2-6.2c0-3.1,0.6-3.1,0.6-6.2s-0.2-3.1-0.2-6.2c0-3.1-0.2-3.1-0.2-6.2
		c0-3.1,0.4-3.1,0.4-6.2c0-3.1-0.1-3.1-0.1-6.2c0-3.1,0.1-3.1,0.1-6.2c0-3.1-0.6-3.1-0.6-6.2c0-3.1,0.5-3.1,0.5-6.2
		s-1.1-3.1-1.1-6.2c0-3.1,1-3.1,1-6.2c0-3.1-1.1-3.1-1.1-6.2c0-3.1,0.1-3.1,0.1-6.2c0-2,2.2-2.6,3.9-1.7c2.9,1.5,3.2,1,6.1,2.5
		c2.9,1.5,3.1,1.2,6,2.7c2.9,1.5,3,1.4,5.9,2.9c2.9,1.5,2.4,2.5,5.3,4c2.9,1.5,3.4,0.7,6.3,2.2c2.9,1.5,2.9,1.5,5.9,3
		c2.9,1.5,2.5,2.3,5.4,3.8c2.9,1.5,3.3,0.8,6.2,2.3c2.9,1.5,2.8,1.8,5.7,3.3c2.9,1.5,2.8,1.7,5.7,3.3c1.9,1,1.9,3.7-0.1,4.6
		c-2.8,1.2-2.7,1.4-5.6,2.7c-2.8,1.2-2.7,1.6-5.5,2.8c-2.8,1.2-3.2,0.4-6,1.6c-2.8,1.2-2.5,2-5.3,3.2c-2.8,1.2-3.2,0.3-6.1,1.5
		c-2.8,1.2-2.4,2.3-5.2,3.5c-2.8,1.2-3.1,0.6-5.9,1.9c-2.8,1.2-2.8,1.2-5.7,2.4c-2.8,1.2-3,0.8-5.9,2c-1.1,0.5-1.6,2.3-1.4,3.5
		c0.5,3.1-0.1,3.2,0.5,6.3c0.5,3.1,0.6,3.1,1.1,6.2c0.5,3.1,1.1,3,1.6,6.1c0.5,3.1,0.4,3.1,1,6.2c0.5,3.1,0.2,3.1,0.7,6.2
		c0.5,3.1,1.3,3,1.8,6c0.5,3.1,1.2,3,1.7,6.1c0.5,3.1-0.3,3.2,0.2,6.3c0.5,3.1,1.3,3,1.8,6c0.5,3.1-0.3,3.2,0.3,6.3
		c0.5,3.1,0.7,3.1,1.2,6.1c0.2,1.4-0.4,2.9-1.7,3.2c-2.7,0.7-2.8,0.5-5.5,1.2c-2.7,0.7-2.9,0.1-5.6,0.8c-2.7,0.7-2.6,1.4-5.3,2.1
		C120.8,268.9,119.7,267.6,119.7,265.8 M160.5,238c2.2,2.4,2.6,2,4.8,4.4c2.2,2.4,1.9,2.7,4.1,5.1c2.2,2.4,2.7,1.9,5,4.3
		c1.1,1.2,0.3,2.9-1.3,3.3c-3.9,1-3.8,1.4-7.6,2.4c-1.3,0.3-2.3-0.7-2.8-1.9c-1.1-3-1.4-2.9-2.5-5.8c-1.1-3-1-3-2.1-6
		c-0.5-1.4-2.2-2-3.6-1.5c-1.4,0.5-2.6,2.3-2.1,3.6c1,2.7,1.2,2.6,2.2,5.4c1,2.7,1.2,2.6,2.2,5.3c0.5,1.5-0.2,2.3-1.7,2.7
		c-3.1,0.8-3.1,0.8-6.2,1.6c-1.5,0.4-2.1-0.1-2.4-1.6c-0.6-3.2-1.1-3.1-1.7-6.2c-0.6-3.2,0-3.2-0.6-6.4c-0.6-3.2-1.6-3-2.2-6.1
		c-0.6-3.2,0.4-3.3-0.2-6.5c-0.6-3.2-1.6-3-2.2-6.1c-0.6-3.2-0.4-3.2-1-6.3c-0.6-3.2,0.5-3.3-0.1-6.5s-1.2-3-1.7-6.2
		c-0.6-3.2-0.9-3.1-1.5-6.2c-0.3-1.8,2.2-3.6,3.7-2.6c2.6,1.6,2,2.5,4.5,4.1c2.6,1.6,3.1,0.8,5.6,2.3c2.6,1.6,2.6,1.5,5.2,3.1
		c2.6,1.6,2.1,2.3,4.7,3.9c2.6,1.6,3,0.9,5.6,2.4c2.6,1.6,2.4,1.8,5,3.4c2.6,1.6,2.4,1.8,5,3.4c1.8,1.1,1.7,3.5-0.2,4.4
		c-3.2,1.6-3.1,1.8-6.3,3.3c-3.2,1.6-3,1.9-6.2,3.5c-0.7,0.4-1.9,0.5-2,1.3C159.8,236.1,159.9,237.4,160.5,238"/>
	<path d="M152.1,216.9c-1.8,0-3.2,0.4-4.4,1.5c-1.2,1.2-2.5,2.6-2.5,4.4c0,1.8,0.8,3.8,1.9,5c1.2,1.2,3.2,2,5,2
		c1.8,0,3.2-1.4,4.4-2.6c1.2-1.2,1.5-2.6,1.5-4.4c0-1.8-0.1-3.5-1.2-4.7C155.6,216.9,153.8,216.9,152.1,216.9"/>
	<path d="M141.4,171c1.8,0,3.7-0.3,4.9-1.5c1.2-1.2,0.9-3.1,0.9-4.9c0-1.8,0.4-3.8-0.7-5c-1.2-1.2-3.2-1.9-5-1.9
		c-1.8,0-3.9,0.7-5.1,1.8c-1.2,1.2-1.7,3.3-1.7,5.1c0,1.8,1.2,3.2,2.4,4.4C138.2,170.2,139.7,171,141.4,171"/>
</g>
<g>
	<path d="M215.1,127.7c0-1.5,1.2-2.7,2.7-2.7H234c8.7,0,14.8,5.7,14.8,13.8c0,8.2-6.3,13.5-16,13.5h-8.6c-1.5,0-2.7,1.2-2.7,2.7
		v13.1c0,1.5-1.2,2.7-2.7,2.7h-0.8c-1.5,0-2.7-1.2-2.7-2.7V127.7z M221.4,133.2v10.8c0,1.5,1.2,2.7,2.7,2.7h4c6.6,0,13.7-0.2,13.7-8
		c0-5.6-3.3-8.3-10.1-8.3h-7.5C222.6,130.5,221.4,131.7,221.4,133.2z"/>
	<path d="M256.3,124.9h0.8c1.5,0,2.7,1.2,2.7,2.7v35c0,1.5,1.2,2.7,2.7,2.7h16.5c1.5,0,2.7,1.2,2.7,2.7v0c0,1.5-1.2,2.7-2.7,2.7
		h-22.8c-1.5,0-2.7-1.2-2.7-2.7v-40.5C253.6,126.2,254.8,124.9,256.3,124.9z"/>
	<path d="M305.6,124.9h2c1.1,0,2.1,0.6,2.5,1.6l17.7,40.5c0.8,1.8-0.5,3.8-2.5,3.8H325c-1.1,0-2.1-0.6-2.5-1.6l-3.5-7.8
		c-0.4-1-1.4-1.6-2.5-1.6h-19.6c-1.1,0-2.1,0.6-2.5,1.6l-3.5,7.8c-0.4,1-1.4,1.6-2.5,1.6h-0.5c-2,0-3.3-2-2.5-3.8l17.8-40.5
		C303.6,125.6,304.5,124.9,305.6,124.9z M304.1,138.9l-5,11.4c-0.8,1.8,0.5,3.8,2.5,3.8h9.9c2,0,3.3-2,2.5-3.8l-4.9-11.4
		C308.2,136.7,305.1,136.7,304.1,138.9z"/>
	<path d="M343.7,124.9h2c1.1,0,2.1,0.6,2.5,1.6l17.7,40.5c0.8,1.8-0.5,3.8-2.5,3.8H363c-1.1,0-2.1-0.6-2.5-1.6l-3.5-7.8
		c-0.4-1-1.4-1.6-2.5-1.6h-19.6c-1.1,0-2.1,0.6-2.5,1.6l-3.5,7.8c-0.4,1-1.4,1.6-2.5,1.6h-0.5c-2,0-3.3-2-2.5-3.8l17.8-40.5
		C341.6,125.6,342.6,124.9,343.7,124.9z M342.2,138.9l-5,11.4c-0.8,1.8,0.5,3.8,2.5,3.8h9.9c2,0,3.3-2,2.5-3.8l-4.9-11.4
		C346.3,136.7,343.1,136.7,342.2,138.9z"/>
	<path d="M373.3,124.9h4.1c1,0,1.9,0.5,2.4,1.4l14.4,25.4c1.4,2.5,5.1,1.5,5.1-1.4v-22.7c0-1.5,1.2-2.7,2.7-2.7h0.8
		c1.5,0,2.7,1.2,2.7,2.7v40.5c0,1.5-1.2,2.7-2.7,2.7h-3.2c-1,0-1.9-0.5-2.4-1.4L382,142.5c-1.4-2.4-5.1-1.5-5.1,1.4v24.4
		c0,1.5-1.2,2.7-2.7,2.7h-0.8c-1.5,0-2.7-1.2-2.7-2.7v-40.5C370.6,126.2,371.8,124.9,373.3,124.9z"/>
	<path d="M412.5,158.6c1.4-1.2,3.5-0.7,4.3,1c0.7,1.7,1.8,3,3.2,4.2c2.4,2,5.7,3.1,9.7,3.1c5.7,0,10.3-3.8,10.3-8.5
		c0-4.5-3-6.8-11.7-8.8c-7.1-1.6-8.4-2.2-12.2-5.3c-0.1-0.1-0.2-0.2-0.3-0.3c-2.3-2.5-3.4-5-3.4-8c0-7.3,6.8-12.3,16.8-12.3
		c9.7,0,13.5,4.7,15.3,7.8c0.6,1.1,0.4,2.5-0.5,3.3l-0.4,0.4c-1.3,1.2-3.4,0.9-4.2-0.6c-1.5-2.5-4.4-5.1-10.6-5.1
		c-6.1,0-9.8,2.5-9.8,6.6c0,4.3,6.7,5.9,11.1,7c7,1.6,16.8,4.3,16.8,14.7c0,8.9-7.2,14.7-18.2,14.7c-6.4,0-11.7-2.1-15.1-6.1
		c-1.1-1.3-1.8-2.3-2.5-4.2c-0.4-1.1-0.1-2.3,0.8-3.1L412.5,158.6z"/>
	<path d="M454,124.9h0.8c1.5,0,2.7,1.2,2.7,2.7v14c0,1.5,1.2,2.7,2.7,2.7h17.4c1.5,0,2.7-1.2,2.7-2.7v-14c0-1.5,1.2-2.7,2.7-2.7h0.8
		c1.5,0,2.7,1.2,2.7,2.7v40.5c0,1.5-1.2,2.7-2.7,2.7h-0.8c-1.5,0-2.7-1.2-2.7-2.7v-15.4c0-1.5-1.2-2.7-2.7-2.7h-17.4
		c-1.5,0-2.7,1.2-2.7,2.7v15.4c0,1.5-1.2,2.7-2.7,2.7H454c-1.5,0-2.7-1.2-2.7-2.7v-40.5C451.3,126.2,452.5,124.9,454,124.9z"/>
	<path d="M234.7,176.6h2c1.1,0,2.1,0.6,2.5,1.6l17.7,40.5c0.8,1.8-0.5,3.8-2.5,3.8H254c-1.1,0-2.1-0.6-2.5-1.6l-3.5-7.8
		c-0.4-1-1.4-1.6-2.5-1.6h-19.6c-1.1,0-2.1,0.6-2.5,1.6l-3.5,7.8c-0.4,1-1.4,1.6-2.5,1.6h-0.5c-2,0-3.3-2-2.5-3.8l17.8-40.5
		C232.6,177.3,233.6,176.6,234.7,176.6z M233.2,190.6l-5,11.4c-0.8,1.8,0.5,3.8,2.5,3.8h9.9c2,0,3.3-2,2.5-3.8l-4.9-11.4
		C237.3,188.4,234.2,188.4,233.2,190.6z"/>
	<path d="M272.5,179.4c0-1.5,1.2-2.7,2.7-2.7H292c8.4,0,14.4,5.3,14.4,12.6c0,5.6-2.4,8.9-6.9,10.8c-1.5,0.6-2,2.4-1.3,3.8l7.8,14.8
		c1,1.8-0.4,4-2.4,4H303c-1,0-1.9-0.6-2.4-1.4l-9.5-17.8c-0.5-0.9-1.4-1.4-2.4-1.4h-7.1c-1.5,0-2.7,1.2-2.7,2.7v15.2
		c0,1.5-1.2,2.7-2.7,2.7h-0.8c-1.5,0-2.7-1.2-2.7-2.7V179.4z M278.8,184.7v9.1c0,1.5,1.2,2.7,2.7,2.7h9.3c5.7,0,8.9-2.6,8.9-7.3
		s-3.1-7.2-9.4-7.2h-8.8C280,182,278.8,183.2,278.8,184.7z"/>
	<path d="M331.3,175.5c12.9,0,21.7,9.6,21.7,23.9c0,21-15.4,24.7-21.9,24.7c-13.4,0-21.8-9.4-21.8-24.6
		C309.3,184.7,318.3,175.5,331.3,175.5z M316,200c0,11,6.2,18.6,15.1,18.6c9.2,0,15.2-7.5,15.2-19.2c0-11-5.9-18.2-15-18.2
		C321.8,181.1,316,188.4,316,200z"/>
	<path d="M377.5,175.5c12.9,0,21.7,9.6,21.7,23.9c0,21-15.4,24.7-21.9,24.7c-13.4,0-21.8-9.4-21.8-24.6
		C355.5,184.7,364.5,175.5,377.5,175.5z M362.2,200c0,11,6.2,18.6,15.1,18.6c9.2,0,15.2-7.5,15.2-19.2c0-11-5.9-18.2-15-18.2
		C368.1,181.1,362.2,188.4,362.2,200z"/>
	<path d="M217.7,228.3h21.8c2,0,3.3,2,2.5,3.8l-0.1,0.2c-0.4,1-1.4,1.6-2.5,1.6H224c-1.5,0-2.7,1.2-2.7,2.7v8.6
		c0,1.5,1.2,2.7,2.7,2.7h11.5c1.5,0,2.7,1.2,2.7,2.7v0.2c0,1.5-1.2,2.7-2.7,2.7H224c-1.5,0-2.7,1.2-2.7,2.7v15.1
		c0,1.5-1.2,2.7-2.7,2.7h-0.8c-1.5,0-2.7-1.2-2.7-2.7V231C214.9,229.5,216.1,228.3,217.7,228.3z"/>
	<path d="M250.4,228.3h0.8c1.5,0,2.7,1.2,2.7,2.7v40.5c0,1.5-1.2,2.7-2.7,2.7h-0.8c-1.5,0-2.7-1.2-2.7-2.7V231
		C247.7,229.5,248.9,228.3,250.4,228.3z"/>
	<path d="M263.3,228.3h0.8c1.5,0,2.7,1.2,2.7,2.7v35c0,1.5,1.2,2.7,2.7,2.7h16.5c1.5,0,2.7,1.2,2.7,2.7l0,0c0,1.5-1.2,2.7-2.7,2.7
		h-22.8c-1.5,0-2.7-1.2-2.7-2.7V231C260.5,229.5,261.8,228.3,263.3,228.3z"/>
	<path d="M327.1,228.3h5c1.5,0,2.7,1.2,2.7,2.7v40.5c0,1.5-1.2,2.7-2.7,2.7h-0.2c-1.5,0-2.7-1.2-2.7-2.7v-19.7
		c0-3.2-4.4-3.8-5.4-0.8l-6.5,21.3c-0.4,1.2-1.4,1.9-2.6,1.9h-2.1c-1.2,0-2.3-0.8-2.6-1.9l-6.5-21.4c-0.9-3-5.4-2.3-5.4,0.8v19.8
		c0,1.5-1.2,2.7-2.7,2.7H295c-1.5,0-2.7-1.2-2.7-2.7V231c0-1.5,1.2-2.7,2.7-2.7h5.1c1.2,0,2.3,0.8,2.6,1.9l8.3,26.9
		c0.8,2.6,4.5,2.6,5.2,0l8.2-26.9C324.8,229.1,325.8,228.3,327.1,228.3z"/>
	<path d="M341.3,261.9c1.4-1.2,3.5-0.7,4.3,1c0.7,1.7,1.8,3,3.2,4.2c2.4,2,5.7,3.1,9.7,3.1c5.7,0,10.3-3.8,10.3-8.5
		c0-4.5-3-6.8-11.7-8.8c-7.1-1.6-8.4-2.2-12.2-5.3c-0.1-0.1-0.2-0.2-0.3-0.3c-2.3-2.5-3.4-5-3.4-8c0-7.3,6.8-12.3,16.8-12.3
		c9.7,0,13.5,4.7,15.3,7.8c0.6,1.1,0.4,2.5-0.5,3.3l-0.4,0.4c-1.3,1.2-3.4,0.9-4.2-0.6c-1.5-2.5-4.4-5.1-10.6-5.1
		c-6.1,0-9.8,2.5-9.8,6.6c0,4.3,6.7,5.9,11.1,7c7,1.6,16.8,4.3,16.8,14.7c0,8.9-7.2,14.7-18.2,14.7c-6.4,0-11.7-2.1-15.1-6.1
		c-1.1-1.3-1.8-2.3-2.5-4.2c-0.4-1.1-0.1-2.3,0.8-3.1L341.3,261.9z"/>
</g>
</svg>
